{
	"asset":{
		"version":"2.0",
		"generator":"Created using the official Cinema 4D glTF Exporter 1.000x284978"
	},
	"scenes":[{
		"nodes":[0]
	}],
	"nodes":[{
		"name":"方盒子",
		"mesh":0
	}],
	"meshes":[{
		"name":"方盒子",
		"primitives":[{
			"attributes":{
				"POSITION":1
			},
			"indices":0,
			"material":0
		}]
	}],
	"accessors":[{
		"bufferView":0,
		"type":"SCALAR",
		"componentType":5123,
		"count":27396,
		"byteOffset":0,
		"min":[0],
		"max":[4649]
	},
	{
		"bufferView":1,
		"type":"VEC3",
		"componentType":5126,
		"count":4650,
		"byteOffset":0,
		"min":[-34.45719909667969,
		-41.32807540893555,
		-34.45719909667969],
		"max":[34.45719909667969,
		41.32807540893555,
		34.45719909667969]
	}],
	"bufferViews":[{
		"buffer":0,
		"byteOffset":0,
		"byteLength":54792,
		"target":34963
	},
	{
		"buffer":0,
		"byteOffset":54792,
		"byteLength":55800,
		"target":34962
	}],
	"buffers":[{
		"uri":"data:application/octet-stream;base64,",
		"byteLength":110592
	}],
	"materials":[{
		"pbrMetallicRoughness":{
			"baseColorFactor":[1.0,
			0.9241666666666669,
			0.08999999999999997,
			1.0],
			"metallicFactor":0.05,
			"roughnessFactor":0.86
		},
		"emissiveFactor":[0.0,
		0.0,
		0.0],
		"alphaMode":"OPAQUE",
		"doubleSided":true,
		"name":"车身"
	}]
}