{
	"asset":{
		"version":"2.0",
		"generator":"Created using the official Cinema 4D glTF Exporter 1.000x284978"
	},
	"scenes":[{
		"nodes":[0]
	}],
	"nodes":[{
		"name":"袜子",
		"children":[1,
		2]
	},
	{
		"name":"袜子-车上面",
		"mesh":0
	},
	{
		"name":"袜子-材质.1",
		"mesh":1
	}],
	"meshes":[{
		"name":"袜子-车上面",
		"primitives":[{
			"attributes":{
				"POSITION":1
			},
			"indices":0,
			"material":0
		}]
	},
	{
		"name":"袜子-材质.1",
		"primitives":[{
			"attributes":{
				"POSITION":3
			},
			"indices":2,
			"material":1
		}]
	}],
	"accessors":[{
		"bufferView":0,
		"type":"SCALAR",
		"componentType":5123,
		"count":5400,
		"byteOffset":0,
		"min":[0],
		"max":[984]
	},
	{
		"bufferView":1,
		"type":"VEC3",
		"componentType":5126,
		"count":985,
		"byteOffset":0,
		"min":[-26.854310989379884,
		-31.135408401489259,
		-21.205793380737306],
		"max":[30.300628662109376,
		31.135408401489259,
		21.205793380737306]
	},
	{
		"bufferView":2,
		"type":"SCALAR",
		"componentType":5123,
		"count":552,
		"byteOffset":0,
		"min":[0],
		"max":[174]
	},
	{
		"bufferView":3,
		"type":"VEC3",
		"componentType":5126,
		"count":175,
		"byteOffset":0,
		"min":[-30.300628662109376,
		-30.859073638916017,
		-13.139163970947266],
		"max":[23.942182540893556,
		18.883054733276368,
		13.139163970947266]
	}],
	"bufferViews":[{
		"buffer":0,
		"byteOffset":0,
		"byteLength":10800,
		"target":34963
	},
	{
		"buffer":0,
		"byteOffset":10800,
		"byteLength":11820,
		"target":34962
	},
	{
		"buffer":1,
		"byteOffset":0,
		"byteLength":1104,
		"target":34963
	},
	{
		"buffer":1,
		"byteOffset":1104,
		"byteLength":2100,
		"target":34962
	}],
	"buffers":[{
		"uri":"data:application/octet-stream;base64,",
		"byteLength":22620
	},
	{
		"uri":"data:application/octet-stream;base64,",
		"byteLength":3204
	}],
	"materials":[{
		"pbrMetallicRoughness":{
			"baseColorFactor":[1.0,
			1.0,
			1.0,
			1.0],
			"metallicFactor":0.05,
			"roughnessFactor":0.86
		},
		"emissiveFactor":[0.0,
		0.0,
		0.0],
		"alphaMode":"OPAQUE",
		"doubleSided":true,
		"name":"车上面"
	},
	{
		"pbrMetallicRoughness":{
			"baseColorFactor":[1.0,
			0.21999999999999998,
			0.21999999999999998,
			1.0],
			"metallicFactor":0.0,
			"roughnessFactor":0.5
		},
		"emissiveFactor":[0.0,
		0.0,
		0.0],
		"alphaMode":"OPAQUE",
		"doubleSided":true,
		"name":"材质.1"
	}]
}