{
	"asset":{
		"version":"2.0",
		"generator":"Created using the official Cinema 4D glTF Exporter 1.000x284978"
	},
	"scenes":[{
		"nodes":[0]
	}],
	"nodes":[{
		"name":"圆盒子",
		"mesh":0
	}],
	"meshes":[{
		"name":"圆盒子",
		"primitives":[{
			"attributes":{
				"POSITION":1
			},
			"indices":0,
			"material":0
		}]
	}],
	"accessors":[{
		"bufferView":0,
		"type":"SCALAR",
		"componentType":5123,
		"count":11160,
		"byteOffset":0,
		"min":[0],
		"max":[1871]
	},
	{
		"bufferView":1,
		"type":"VEC3",
		"componentType":5126,
		"count":1872,
		"byteOffset":0,
		"min":[-39.03032302856445,
		-41.413475036621097,
		-39.57527160644531],
		"max":[39.03032302856445,
		41.413475036621097,
		39.57527160644531]
	}],
	"bufferViews":[{
		"buffer":0,
		"byteOffset":0,
		"byteLength":22320,
		"target":34963
	},
	{
		"buffer":0,
		"byteOffset":22320,
		"byteLength":22464,
		"target":34962
	}],
	"buffers":[{
		"uri":"data:application/octet-stream;base64,",
		"byteLength":44784
	}],
	"materials":[{
		"pbrMetallicRoughness":{
			"baseColorFactor":[1.0,
			0.21999999999999998,
			0.21999999999999998,
			1.0],
			"metallicFactor":0.05,
			"roughnessFactor":0.86
		},
		"emissiveFactor":[0.0,
		0.0,
		0.0],
		"alphaMode":"OPAQUE",
		"doubleSided":true,
		"name":"车身"
	}]
}