{
  "accessors": [
    {
      "name": "Basketball_1_43_1_0_positions",
      "componentType": 5126,
      "count": 12882,
      "min": [
        -117.62744903564453,
        196.2133331298828,
        2.0415799617767334
      ],
      "max": [
        100.02442932128906,
        291.5650329589844,
        257.92242431640625
      ],
      "type": "VEC3",
      "bufferView": 0,
      "byteOffset": 0
    },
    {
      "name": "Basketball_1_43_1_0_normals",
      "componentType": 5126,
      "count": 12882,
      "min": [
        -1,
        -1,
        -1
      ],
      "max": [
        1,
        1,
        1
      ],
      "type": "VEC3",
      "bufferView": 1,
      "byteOffset": 0
    },
    {
      "name": "Basketball_1_43_1_0_indices",
      "componentType": 5123,
      "count": 76848,
      "min": [
        0
      ],
      "max": [
        12881
      ],
      "type": "SCALAR",
      "bufferView": 2,
      "byteOffset": 0
    },
    {
      "name": "Basketball_1_43_1_1_positions",
      "componentType": 5126,
      "count": 5270,
      "min": [
        -111.77822875976562,
        4.9589080810546875,
        3.778456926345825
      ],
      "max": [
        95.0691146850586,
        275.4671630859375,
        218.12132263183594
      ],
      "type": "VEC3",
      "bufferView": 0,
      "byteOffset": 154584
    },
    {
      "name": "Basketball_1_43_1_1_normals",
      "componentType": 5126,
      "count": 5270,
      "min": [
        -0.9999611377716064,
        -0.9989510774612427,
        -0.9998350739479065
      ],
      "max": [
        0.998690664768219,
        0.9979658126831055,
        0.9998986124992371
      ],
      "type": "VEC3",
      "bufferView": 1,
      "byteOffset": 154584
    },
    {
      "name": "Basketball_1_43_1_1_indices",
      "componentType": 5123,
      "count": 31467,
      "min": [
        0
      ],
      "max": [
        5269
      ],
      "type": "SCALAR",
      "bufferView": 2,
      "byteOffset": 153696
    },
    {
      "name": "holder_1__1_1_0_positions",
      "componentType": 5126,
      "count": 720,
      "min": [
        -45.81911087036133,
        201.72000122070312,
        256.92987060546875
      ],
      "max": [
        27.84004783630371,
        275.54229736328125,
        258.4197692871094
      ],
      "type": "VEC3",
      "bufferView": 0,
      "byteOffset": 217824
    },
    {
      "name": "holder_1__1_1_0_normals",
      "componentType": 5126,
      "count": 720,
      "min": [
        -0.9991640448570251,
        -0.9990906119346619,
        -1
      ],
      "max": [
        0.9991516470909119,
        0.9991024732589722,
        0.0005660000024363399
      ],
      "type": "VEC3",
      "bufferView": 1,
      "byteOffset": 217824
    },
    {
      "name": "holder_1__1_1_0_indices",
      "componentType": 5123,
      "count": 3750,
      "min": [
        0
      ],
      "max": [
        719
      ],
      "type": "SCALAR",
      "bufferView": 2,
      "byteOffset": 216632
    },
    {
      "name": "holder_1__1_1_1_positions",
      "componentType": 5126,
      "count": 1586,
      "min": [
        -52.35000991821289,
        196.10813903808594,
        210.11424255371094
      ],
      "max": [
        34.74374008178711,
        287.9198913574219,
        259.8623352050781
      ],
      "type": "VEC3",
      "bufferView": 0,
      "byteOffset": 226464
    },
    {
      "name": "holder_1__1_1_1_normals",
      "componentType": 5126,
      "count": 1586,
      "min": [
        -1,
        -1,
        -1
      ],
      "max": [
        1,
        1,
        1
      ],
      "type": "VEC3",
      "bufferView": 1,
      "byteOffset": 226464
    },
    {
      "name": "holder_1__1_1_1_indices",
      "componentType": 5123,
      "count": 9504,
      "min": [
        0
      ],
      "max": [
        1585
      ],
      "type": "SCALAR",
      "bufferView": 2,
      "byteOffset": 224132
    }
  ],
  "asset": {
    "generator": "obj2gltf",
    "version": "2.0"
  },
  "buffers": [
    {
      "name": "obj",
      "byteLength": 734132,
      "uri": "data:application/octet-stream;base64,"
    }
  ],
  "bufferViews": [
    {
      "name": "bufferView_0",
      "buffer": 0,
      "byteLength": 245496,
      "byteOffset": 0,
      "byteStride": 12,
      "target": 34962
    },
    {
      "name": "bufferView_1",
      "buffer": 0,
      "byteLength": 245496,
      "byteOffset": 245496,
      "byteStride": 12,
      "target": 34962
    },
    {
      "name": "bufferView_2",
      "buffer": 0,
      "byteLength": 243140,
      "byteOffset": 490992,
      "target": 34963
    }
  ],
  "materials": [
    {
      "name": "Metal_red",
      "pbrMetallicRoughness": {
        "baseColorFactor": [
          0.5,
          0.5,
          0.5,
          1
        ],
        "metallicFactor": 0,
        "roughnessFactor": 1
      },
      "emissiveFactor": [
        0,
        0,
        0
      ],
      "alphaMode": "OPAQUE",
      "doubleSided": false
    },
    {
      "name": "Fabric___Gray",
      "pbrMetallicRoughness": {
        "baseColorFactor": [
          0.5,
          0.5,
          0.5,
          1
        ],
        "metallicFactor": 0,
        "roughnessFactor": 1
      },
      "emissiveFactor": [
        0,
        0,
        0
      ],
      "alphaMode": "OPAQUE",
      "doubleSided": false
    },
    {
      "name": "Metal_Polished_Blue",
      "pbrMetallicRoughness": {
        "baseColorFactor": [
          0.5,
          0.5,
          0.5,
          1
        ],
        "metallicFactor": 0,
        "roughnessFactor": 1
      },
      "emissiveFactor": [
        0,
        0,
        0
      ],
      "alphaMode": "OPAQUE",
      "doubleSided": false
    }
  ],
  "meshes": [
    {
      "name": "Basketball_1_43_1",
      "primitives": [
        {
          "attributes": {
            "POSITION": 0,
            "NORMAL": 1
          },
          "indices": 2,
          "material": 0,
          "mode": 4
        },
        {
          "attributes": {
            "POSITION": 3,
            "NORMAL": 4
          },
          "indices": 5,
          "material": 1,
          "mode": 4
        }
      ]
    },
    {
      "name": "holder_1__1_1",
      "primitives": [
        {
          "attributes": {
            "POSITION": 6,
            "NORMAL": 7
          },
          "indices": 8,
          "material": 2,
          "mode": 4
        },
        {
          "attributes": {
            "POSITION": 9,
            "NORMAL": 10
          },
          "indices": 11,
          "material": 0,
          "mode": 4
        }
      ]
    }
  ],
  "nodes": [
    {
      "name": "Basketball_1_43",
      "mesh": 0
    },
    {
      "name": "holder_1__1",
      "mesh": 1
    }
  ],
  "scene": 0,
  "scenes": [
    {
      "nodes": [
        0,
        1
      ]
    }
  ]
}
